<?xml version="1.0" encoding="UTF-8"?>
<svg xmlns="http://www.w3.org/2000/svg" width="1024" height="1024" viewBox="0 0 1024 1024">
  <defs><linearGradient id="bgv" x1="0" y1="0" x2="0" y2="1024" gradientUnits="userSpaceOnUse">
      <stop offset="0" stop-color="#1b1e29"/><stop offset="1" stop-color="#080910"/></linearGradient>
    <radialGradient id="sheen" cx="512" cy="210" r="640" gradientUnits="userSpaceOnUse">
      <stop offset="0" stop-color="#ffffff" stop-opacity="0.06"/><stop offset="0.55" stop-color="#ffffff" stop-opacity="0"/></radialGradient><linearGradient id="mark" x1="250" y1="310" x2="760" y2="800" gradientUnits="userSpaceOnUse">
      <stop offset="0" stop-color="#3a5bef"/><stop offset="0.5" stop-color="#22b8e6"/><stop offset="1" stop-color="#18e39a"/>
    </linearGradient></defs>
  <rect width="1024" height="1024" fill="#12141c"/>
  <rect width="1024" height="1024" fill="url(#bgv)"/>
  <rect width="1024" height="1024" fill="url(#sheen)"/>
  
  <path fill="url(#mark)" fill-rule="evenodd" d="
    M250,300 L452,300
    C512,300 556,344 556,405
    C556,466 512,510 452,510
    L328,510 L328,690 L250,690 Z
    M328,372 L452,372
    C486,372 508,388 508,405
    C508,422 486,438 452,438
    L328,438 Z"/>
  <path fill="url(#mark)" d="M279,690 L299,690 L299,792 L279,792 Z"/>
  <path fill="url(#mark)" d="M254,744 L324,744 L324,760 L254,760 Z"/>
  <path fill="url(#mark)" d="M279,792 L299,792 L289,860 Z"/>
  <path fill="none" stroke="url(#mark)" stroke-width="80" stroke-linejoin="miter"
        stroke-miterlimit="12" stroke-linecap="butt"
        d="M400,486 L478,782 L566,566 L652,782 L744,486"/>
</svg>